<svg xmlns="http://www.w3.org/2000/svg" xmlns:svg="http://www.w3.org/2000/svg" id="svg1" width="404.434" height="520.957" version="1.1" viewBox="0 0 107.006 137.837" xml:space="preserve"><g id="layer1" transform="translate(-388.44829,-63.524214)"><g id="g19" transform="translate(-1.8021948,9.1222076)"><g id="g18" transform="rotate(-60,443.36248,113.34791)" style="fill:#222;fill-opacity:1"><path d="m 483.84376,143.17989 h -90.61275 a 52.398938,52.711408 0 0 0 45.30612,26.22992 52.398938,52.711408 0 0 0 45.30663,-26.22992 z" style="fill:#222;fill-opacity:1;stroke-width:7.89767;stroke-linecap:square;paint-order:stroke fill markers" id="path18"/><path d="m 516.80888,122.669 h -156.543 a 78.860668,53.236044 0 0 0 5.18474,13.5 h 146.17346 a 78.860668,53.236044 0 0 0 5.1848,-13.5 z" style="fill:#222;fill-opacity:1;stroke-width:9.73685;stroke-linecap:square;paint-order:stroke fill markers" id="path17"/><path d="M 438.53713,62.938449 A 52.573865,52.573865 0 0 0 385.9641,115.26089 H 491.11067 A 52.573865,52.573865 0 0 0 438.53713,62.938449 Z" style="fill:#222;fill-opacity:1;stroke-width:7.90051;stroke-linecap:square;paint-order:stroke fill markers" id="path16"/></g></g></g></svg>